<svg width="39" height="53" viewBox="0 0 39 53" fill="none" xmlns="http://www.w3.org/2000/svg">
<path d="M19.5 0C19.5 0 0.75 21.25 0.75 33.75C0.75 44.0625 9.1875 52.5 19.5 52.5C29.8125 52.5 38.25 44.0625 38.25 33.75C38.25 21.25 19.5 0 19.5 0ZM19.5 16.5625V21.25C26.375 21.25 32 26.875 32 33.75C32 36.25 31.375 38.75 29.8125 40.625L26.375 37.1875C27 36.25 27.3125 35 27.3125 33.75C27.3125 29.375 23.875 25.9375 19.5 25.9375V30.625L12.625 23.75L19.5 16.5625ZM9.1875 26.875L12.625 30.3125C12 31.25 11.6875 32.5 11.6875 33.75C11.6875 38.125 15.125 41.5625 19.5 41.5625V36.875L26.375 43.75L19.5 50.9375V46.25C12.625 46.25 7 40.625 7 33.75C7 31.25 7.625 28.75 9.1875 26.875Z" fill="black"/>
</svg>
