<svg width="38" height="38" viewBox="0 0 38 38" fill="none" xmlns="http://www.w3.org/2000/svg">
<path d="M19 37.75C16.7778 37.75 14.6771 37.3854 12.6979 36.6562C10.7188 35.9271 8.93056 34.9201 7.33333 33.6354L3.21875 37.75L0.25 34.7812L4.36458 30.6667C3.07986 29.0694 2.07292 27.2722 1.34375 25.275C0.614584 23.2792 0.25 21.1875 0.25 19C0.25 13.7917 2.08194 9.36458 5.74583 5.71875C9.40833 2.07292 13.8264 0.25 19 0.25H37.75V19C37.75 24.1736 35.9271 28.5924 32.2812 32.2563C28.6354 35.9188 24.2083 37.75 19 37.75ZM16.2396 29.1562L27.0208 19.5208C27.3681 19.2083 27.4722 18.8347 27.3333 18.4C27.1944 17.9667 26.8819 17.7153 26.3958 17.6458L17.9583 16.8125L23.0104 9.88542C23.1493 9.71181 23.2097 9.52917 23.1917 9.3375C23.175 9.14722 23.0972 8.96528 22.9583 8.79167C22.7847 8.61806 22.5854 8.53125 22.3604 8.53125C22.134 8.53125 21.934 8.61806 21.7604 8.79167L11.0312 18.4271C10.684 18.7396 10.5799 19.1125 10.7187 19.5458C10.8576 19.9806 11.1701 20.2326 11.6562 20.3021L20.0937 21.1354L14.9896 28.0625C14.8854 28.2361 14.8333 28.4188 14.8333 28.6104C14.8333 28.8007 14.9201 28.9826 15.0937 29.1562C15.2674 29.3299 15.4583 29.4167 15.6667 29.4167C15.875 29.4167 16.066 29.3299 16.2396 29.1562Z" fill="black"/>
</svg>
