<svg width="43" height="43" viewBox="0 0 43 43" fill="none" xmlns="http://www.w3.org/2000/svg">
<path d="M36.375 34.9087V38.5C36.375 39.6272 35.9272 40.7082 35.1302 41.5052C34.3332 42.3022 33.2522 42.75 32.125 42.75H10.875C9.74783 42.75 8.66683 42.3022 7.8698 41.5052C7.07277 40.7082 6.625 39.6272 6.625 38.5V30.6375C5.6475 30.255 4.39375 30 2.375 30C1.81141 30 1.27091 29.7761 0.872398 29.3776C0.473883 28.9791 0.25 28.4386 0.25 27.875C0.25 27.3114 0.473883 26.7709 0.872398 26.3724C1.27091 25.9739 1.81141 25.75 2.375 25.75C4.1175 25.75 5.49875 25.92 6.625 26.1963V22.1375C5.6475 21.755 4.39375 21.5 2.375 21.5C1.81141 21.5 1.27091 21.2761 0.872398 20.8776C0.473883 20.4791 0.25 19.9386 0.25 19.375C0.25 18.8114 0.473883 18.2709 0.872398 17.8724C1.27091 17.4739 1.81141 17.25 2.375 17.25C4.1175 17.25 5.49875 17.42 6.625 17.6963V13.6375C5.6475 13.255 4.39375 13 2.375 13C1.81141 13 1.27091 12.7761 0.872398 12.3776C0.473883 11.9791 0.25 11.4386 0.25 10.875C0.25 10.3114 0.473883 9.77091 0.872398 9.3724C1.27091 8.97388 1.81141 8.75 2.375 8.75C4.1175 8.75 5.49875 8.92 6.625 9.19625V4.5C6.625 3.37283 7.07277 2.29183 7.8698 1.4948C8.66683 0.697766 9.74783 0.25 10.875 0.25H32.125C33.2522 0.25 34.3332 0.697766 35.1302 1.4948C35.9272 2.29183 36.375 3.37283 36.375 4.5V9.09C40.1575 9.74875 41.7725 11.1512 42.1337 11.4913C42.9625 12.32 42.9625 13.68 42.1337 14.5087C41.305 15.3375 40.2 15.3162 39.1163 14.5087C39.1163 14.5087 36.9062 13 32.125 13C29.4475 13 27.6838 13.8712 25.6437 14.9125C23.4338 15.9962 20.9475 17.25 17.25 17.25C16.485 17.25 15.7837 17.25 15.125 17.165V12.8937C15.7625 13 16.4638 13 17.25 13C19.9275 13 21.6912 12.1287 23.7313 11.1088C25.9412 10.0037 28.4487 8.75 32.125 8.75V4.5H10.875V38.5H32.125V34.25C35.3125 34.25 36.3112 34.8662 36.375 34.9087ZM32.125 17.25C28.4487 17.25 25.9412 18.5037 23.7313 19.6087C21.6912 20.6287 19.9275 21.5 17.25 21.5C16.4638 21.5 15.7625 21.5 15.125 21.3937V25.665C15.7837 25.75 16.485 25.75 17.25 25.75C20.9475 25.75 23.4338 24.4962 25.6437 23.4125C27.6838 22.3925 29.4475 21.5 32.125 21.5C36.9062 21.5 39.1163 23.0088 39.1163 23.0088C40.2 23.8375 41.305 23.8375 42.1337 23.0088C42.9625 22.18 42.9625 20.8412 42.1337 19.9912C41.6875 19.545 39.0312 17.25 32.125 17.25ZM32.125 25.75C28.4487 25.75 25.9412 27.0037 23.7313 28.1087C21.6912 29.1287 19.9275 30 17.25 30C16.4638 30 15.7625 30 15.125 29.8937V34.165C15.7837 34.25 16.485 34.25 17.25 34.25C20.9475 34.25 23.4338 32.9963 25.6437 31.9125C27.6838 30.8925 29.4475 30 32.125 30C36.9062 30 39.1163 31.5087 39.1163 31.5087C40.2 32.3375 41.305 32.3375 42.1337 31.5087C42.9625 30.68 42.9625 29.3412 42.1337 28.4912C41.6875 28.045 39.0312 25.75 32.125 25.75Z" fill="black"/>
</svg>
