<svg width="29" height="29" viewBox="0 0 29 29" fill="none" xmlns="http://www.w3.org/2000/svg">
<path d="M16.0708 20.8738C15.8292 20.6322 15.7132 20.3402 15.7228 19.9978C15.7333 19.6554 15.8594 19.3634 16.1011 19.1218L19.5146 15.7082H6.04168C5.69932 15.7082 5.41214 15.5922 5.18014 15.3602C4.94894 15.129 4.83334 14.8422 4.83334 14.4999C4.83334 14.1575 4.94894 13.8703 5.18014 13.6383C5.41214 13.4071 5.69932 13.2916 6.04168 13.2916H19.5146L16.0708 9.8478C15.8292 9.60614 15.7083 9.31896 15.7083 8.98626C15.7083 8.65437 15.8292 8.36759 16.0708 8.12593C16.3125 7.88426 16.5997 7.76343 16.9324 7.76343C17.2643 7.76343 17.5511 7.88426 17.7927 8.12593L23.3208 13.6541C23.4417 13.7749 23.5275 13.9058 23.5782 14.0468C23.6282 14.1877 23.6531 14.3388 23.6531 14.4999C23.6531 14.661 23.6282 14.812 23.5782 14.953C23.5275 15.094 23.4417 15.2249 23.3208 15.3457L17.7625 20.9041C17.541 21.1256 17.2643 21.2363 16.9324 21.2363C16.5997 21.2363 16.3125 21.1155 16.0708 20.8738Z" fill="white"/>
</svg>
