<svg width="28" height="28" viewBox="0 0 28 28" fill="none" xmlns="http://www.w3.org/2000/svg">
<path d="M14.8167 17.8499L17.85 14.8166C18.0639 14.6027 18.1708 14.3305 18.1708 13.9999C18.1708 13.6694 18.0639 13.3971 17.85 13.1833L14.7875 10.1208C14.5736 9.90686 14.3064 9.80458 13.986 9.81392C13.6648 9.82403 13.3972 9.93603 13.1833 10.1499C12.9694 10.3638 12.8625 10.636 12.8625 10.9666C12.8625 11.2971 12.9694 11.5694 13.1833 11.7833L14.2333 12.8333H10.4708C10.1403 12.8333 9.86805 12.9449 9.65416 13.1681C9.44027 13.3921 9.33333 13.6694 9.33333 13.9999C9.33333 14.3305 9.44533 14.6074 9.66933 14.8306C9.89255 15.0546 10.1694 15.1666 10.5 15.1666H14.2333L13.1542 16.2458C12.9403 16.4596 12.838 16.7272 12.8473 17.0484C12.8574 17.3689 12.9694 17.636 13.1833 17.8499C13.3972 18.0638 13.6694 18.1708 14 18.1708C14.3306 18.1708 14.6028 18.0638 14.8167 17.8499ZM14 25.6666C12.3861 25.6666 10.8694 25.3601 9.45 24.7473C8.03055 24.1351 6.79583 23.3041 5.74583 22.2541C4.69583 21.2041 3.86477 19.9694 3.25266 18.5499C2.63977 17.1305 2.33333 15.6138 2.33333 13.9999C2.33333 12.386 2.63977 10.8694 3.25266 9.44992C3.86477 8.03047 4.69583 6.79575 5.74583 5.74575C6.79583 4.69575 8.03055 3.86431 9.45 3.25142C10.8694 2.63931 12.3861 2.33325 14 2.33325C15.6139 2.33325 17.1305 2.63931 18.55 3.25142C19.9694 3.86431 21.2042 4.69575 22.2542 5.74575C23.3042 6.79575 24.1352 8.03047 24.7473 9.44992C25.3602 10.8694 25.6667 12.386 25.6667 13.9999C25.6667 15.6138 25.3602 17.1305 24.7473 18.5499C24.1352 19.9694 23.3042 21.2041 22.2542 22.2541C21.2042 23.3041 19.9694 24.1351 18.55 24.7473C17.1305 25.3601 15.6139 25.6666 14 25.6666Z" fill="black"/>
</svg>
