<svg width="27" height="27" viewBox="0 0 27 27" fill="none" xmlns="http://www.w3.org/2000/svg">
<path d="M13.5 23.625C12.3 23.625 11.1656 23.4281 10.0969 23.0344C9.02813 22.6406 8.0625 22.0969 7.2 21.4031L4.97813 23.625L3.375 22.0219L5.59687 19.8C4.90312 18.9375 4.35938 17.967 3.96563 16.8885C3.57188 15.8108 3.375 14.6812 3.375 13.5C3.375 10.6875 4.36425 8.29688 6.34275 6.32812C8.3205 4.35938 10.7063 3.375 13.5 3.375H23.625V13.5C23.625 16.2937 22.6406 18.6799 20.6719 20.6584C18.7031 22.6361 16.3125 23.625 13.5 23.625ZM12.0094 18.9844L17.8313 13.7812C18.0188 13.6125 18.075 13.4107 18 13.176C17.925 12.942 17.7563 12.8063 17.4938 12.7688L12.9375 12.3187L15.6656 8.57812C15.7406 8.48438 15.7732 8.38575 15.7635 8.28225C15.7545 8.1795 15.7125 8.08125 15.6375 7.9875C15.5437 7.89375 15.4361 7.84687 15.3146 7.84687C15.1924 7.84687 15.0844 7.89375 14.9906 7.9875L9.19688 13.1906C9.00938 13.3594 8.95312 13.5608 9.02812 13.7948C9.10312 14.0295 9.27188 14.1656 9.53438 14.2031L14.0906 14.6531L11.3344 18.3938C11.2781 18.4875 11.25 18.5861 11.25 18.6896C11.25 18.7924 11.2969 18.8906 11.3906 18.9844C11.4844 19.0781 11.5875 19.125 11.7 19.125C11.8125 19.125 11.9156 19.0781 12.0094 18.9844Z" fill="black"/>
</svg>
