<svg width="28" height="28" viewBox="0 0 28 28" fill="none" xmlns="http://www.w3.org/2000/svg">
<path d="M17.5 15.1668V5.8335C17.5 4.90524 17.1312 4.015 16.4748 3.35862C15.8185 2.70225 14.9282 2.3335 14 2.3335C13.0717 2.3335 12.1815 2.70225 11.5251 3.35862C10.8687 4.015 10.5 4.90524 10.5 5.8335V15.1668C9.52051 15.9014 8.79701 16.9256 8.43196 18.0942C8.06691 19.2628 8.07881 20.5167 8.46597 21.6782C8.85314 22.8396 9.59593 23.8499 10.5891 24.5657C11.5824 25.2816 12.7756 25.6668 14 25.6668C15.2243 25.6668 16.4176 25.2816 17.4108 24.5657C18.404 23.8499 19.1468 22.8396 19.5339 21.6782C19.9211 20.5167 19.933 19.2628 19.568 18.0942C19.2029 16.9256 18.4794 15.9014 17.5 15.1668ZM14 4.66683C14.3094 4.66683 14.6061 4.78975 14.8249 5.00854C15.0437 5.22733 15.1666 5.52408 15.1666 5.8335V9.3335H12.8333V5.8335C12.8333 5.52408 12.9562 5.22733 13.175 5.00854C13.3938 4.78975 13.6905 4.66683 14 4.66683Z" fill="black"/>
</svg>
