<svg width="101" height="101" viewBox="0 0 101 101" fill="none" xmlns="http://www.w3.org/2000/svg">
<path d="M50.5 88.375C46.0111 88.375 41.7677 87.6385 37.7698 86.1656C33.7719 84.6927 30.1597 82.6587 26.9333 80.0635L18.6219 88.375L12.625 82.3781L20.9365 74.0667C18.3413 70.8403 16.3073 67.2099 14.8344 63.1755C13.3615 59.1439 12.625 54.9188 12.625 50.5C12.625 39.9792 16.3255 31.0365 23.7266 23.6719C31.1248 16.3073 40.0493 12.625 50.5 12.625H88.375V50.5C88.375 60.9507 84.6927 69.8766 77.3281 77.2776C69.9635 84.6759 61.0208 88.375 50.5 88.375ZM44.924 71.0156L66.7021 51.5521C67.4035 50.9208 67.6139 50.1661 67.3333 49.288C67.0528 48.4127 66.4215 47.9049 65.4396 47.7646L48.3958 46.0813L58.601 32.0885C58.8816 31.7378 59.0036 31.3689 58.9672 30.9818C58.9335 30.5974 58.7764 30.2299 58.4958 29.8792C58.1451 29.5285 57.7425 29.3531 57.288 29.3531C56.8307 29.3531 56.4267 29.5285 56.076 29.8792L34.4031 49.3427C33.7017 49.974 33.4913 50.7273 33.7719 51.6026C34.0524 52.4807 34.6837 52.9899 35.6656 53.1302L52.7094 54.8135L42.399 68.8063C42.1885 69.1569 42.0833 69.5259 42.0833 69.913C42.0833 70.2974 42.2587 70.6649 42.6094 71.0156C42.9601 71.3663 43.3458 71.5417 43.7667 71.5417C44.1875 71.5417 44.5733 71.3663 44.924 71.0156Z" fill="black"/>
</svg>
