<svg width="104" height="104" viewBox="0 0 104 104" fill="none" xmlns="http://www.w3.org/2000/svg">
<g clip-path="url(#clip0_59_86)">
<path d="M28.5567 2.85976C38.6967 -4.98358 49.7033 4.59309 52.1733 19.4998C54.0367 19.4998 55.8567 20.0198 57.5033 20.9731C59.7567 18.3731 61.75 14.8198 60.97 10.8331C59.15 1.51642 69.5933 -6.02358 79.5167 6.84642C87.36 16.9864 77.7833 27.9931 62.8333 30.4631C62.8333 32.3264 62.3567 34.1898 61.36 35.8364C63.96 38.0464 67.5133 40.0398 71.5 39.2598C80.73 37.4398 88.3133 47.8398 75.4433 57.8064C65.3033 65.6498 54.2967 56.0731 51.8267 41.1664C49.9633 41.1664 48.1433 40.6031 46.54 39.6498C44.2867 42.2498 42.25 45.8464 43.03 49.8331C44.85 59.1064 34.4067 66.6898 24.4833 53.8198C16.5967 43.6364 26.2167 32.6298 41.1667 30.2031C41.1667 28.3398 41.73 26.5198 42.6833 24.8731C40.0833 22.6631 36.53 20.6264 32.5 21.4064C23.27 23.2264 15.6867 12.8264 28.5567 2.85976M21.6667 69.3331H30.3333C32.6319 69.3331 34.8363 70.2462 36.4616 71.8715C38.0869 73.4968 39 75.7012 39 77.9998V104H30.3333V95.3331H21.6667V104H13V77.9998C13 75.7012 13.9131 73.4968 15.5384 71.8715C17.1637 70.2462 19.3681 69.3331 21.6667 69.3331M21.6667 77.9998V86.6664H30.3333V77.9998H21.6667ZM56.03 69.3331H65L52.3033 104H43.3333L56.03 69.3331ZM78 69.3331H91V77.9998H78V95.3331H91V104H78C75.7015 104 73.4971 103.087 71.8717 101.461C70.2464 99.836 69.3333 97.6316 69.3333 95.3331V77.9998C69.3333 75.7012 70.2464 73.4968 71.8717 71.8715C73.4971 70.2462 75.7015 69.3331 78 69.3331V69.3331Z" fill="black"/>
</g>
<defs>
<clipPath id="clip0_59_86">
<rect width="104" height="104" fill="white"/>
</clipPath>
</defs>
</svg>
