<svg width="29" height="29" viewBox="0 0 29 29" fill="none" xmlns="http://www.w3.org/2000/svg">
<g clip-path="url(#clip0_59_42)">
<path d="M7.96292 0.797738C10.7904 -1.38935 13.8596 1.28107 14.5483 5.43774C15.0679 5.43774 15.5754 5.58274 16.0346 5.84857C16.6629 5.12357 17.2188 4.13274 17.0013 3.02107C16.4937 0.423154 19.4058 -1.67935 22.1729 1.9094C24.36 4.7369 21.6896 7.80607 17.5208 8.49482C17.5208 9.01441 17.3879 9.53399 17.11 9.99315C17.835 10.6094 18.8258 11.1652 19.9375 10.9477C22.5113 10.4402 24.6258 13.3402 21.0371 16.1194C18.2096 18.3065 15.1404 15.6361 14.4517 11.4794C13.9321 11.4794 13.4246 11.3223 12.9775 11.0565C12.3492 11.7815 11.7813 12.7844 11.9988 13.8961C12.5063 16.4819 9.59417 18.5965 6.82708 15.0077C4.62792 12.1682 7.31042 9.09899 11.4792 8.42232C11.4792 7.90274 11.6363 7.39524 11.9021 6.93607C11.1771 6.31982 10.1863 5.7519 9.0625 5.9694C6.48875 6.4769 4.37417 3.5769 7.96292 0.797738ZM6.04167 19.3336H8.45833C9.09927 19.3336 9.71396 19.5882 10.1672 20.0414C10.6204 20.4946 10.875 21.1093 10.875 21.7502V29.0002H8.45833V26.5836H6.04167V29.0002H3.625V21.7502C3.625 21.1093 3.87961 20.4946 4.33283 20.0414C4.78604 19.5882 5.40073 19.3336 6.04167 19.3336ZM6.04167 21.7502V24.1669H8.45833V21.7502H6.04167ZM15.6238 19.3336H18.125L14.5846 29.0002H12.0833L15.6238 19.3336ZM21.75 19.3336H25.375V21.7502H21.75V26.5836H25.375V29.0002H21.75C21.1091 29.0002 20.4944 28.7456 20.0412 28.2924C19.5879 27.8392 19.3333 27.2245 19.3333 26.5836V21.7502C19.3333 21.1093 19.5879 20.4946 20.0412 20.0414C20.4944 19.5882 21.1091 19.3336 21.75 19.3336Z" fill="black"/>
</g>
<defs>
<clipPath id="clip0_59_42">
<rect width="29" height="29" fill="white"/>
</clipPath>
</defs>
</svg>
