<svg width="43" height="46" viewBox="0 0 43 46" fill="none" xmlns="http://www.w3.org/2000/svg">
<circle cx="21" cy="25" r="21" fill="black"/>
<circle cx="34.5" cy="8.5" r="8.5" fill="#9F1609"/>
<path d="M37.7167 12V10.2H34.6767L36.8467 8.34C37.6567 7.64 37.5267 7.2 37.5567 6.08C37.6167 4.48 36.9867 4.08 34.3967 4.08C31.9067 4.08 31.1867 4.62 31.1867 6.78H33.3867C33.3867 5.89 33.4867 5.78 34.3867 5.78C35.4067 5.78 35.5167 5.86 35.5167 6.46C35.5167 6.89 35.3567 7.14 34.6967 7.69L31.2467 10.6V12H37.7167Z" fill="white"/>
<path d="M21 18C19 18 15 19.2 15 24V28L13 30H18M21 18C25.8 18 27 22 27 24V28L29 30H24M21 18V16M18 30V31C18 32 18.6 34 21 34C23.4 34 24 32 24 31V30M18 30H24" stroke="white" stroke-width="2" stroke-linecap="round" stroke-linejoin="round"/>
</svg>
