<svg width="42" height="42" viewBox="0 0 42 42" fill="none" xmlns="http://www.w3.org/2000/svg">
<circle cx="21" cy="21" r="21" fill="black"/>
<path d="M24.5 24H23.71L23.43 23.73C24.0549 23.0039 24.5117 22.1487 24.7675 21.2256C25.0234 20.3024 25.072 19.3341 24.91 18.39C24.44 15.61 22.12 13.39 19.32 13.05C18.3356 12.9254 17.3358 13.0277 16.397 13.3491C15.4582 13.6704 14.6054 14.2022 13.9038 14.9038C13.2022 15.6054 12.6704 16.4582 12.3491 17.397C12.0277 18.3358 11.9254 19.3356 12.05 20.32C12.39 23.12 14.61 25.44 17.39 25.91C18.3341 26.072 19.3024 26.0234 20.2256 25.7675C21.1487 25.5117 22.0039 25.0549 22.73 24.43L23 24.71V25.5L27.25 29.75C27.66 30.16 28.33 30.16 28.74 29.75C29.15 29.34 29.15 28.67 28.74 28.26L24.5 24ZM18.5 24C16.01 24 14 21.99 14 19.5C14 17.01 16.01 15 18.5 15C20.99 15 23 17.01 23 19.5C23 21.99 20.99 24 18.5 24Z" fill="white"/>
</svg>
