<svg width="29" height="29" viewBox="0 0 29 29" fill="none" xmlns="http://www.w3.org/2000/svg">
<path d="M3.625 20.5418H6.52137C7.49278 20.5418 8.44985 20.3075 9.31143 19.8588C10.173 19.4101 10.9137 18.7603 11.4707 17.9645L11.6846 17.6587M16.1071 11.3428L16.321 11.0359C16.878 10.24 17.6187 9.59022 18.4802 9.14154C19.3418 8.69287 20.2989 8.45857 21.2703 8.4585H25.375" stroke="black" stroke-width="2" stroke-linecap="round" stroke-linejoin="round"/>
<path d="M21.75 4.8335L25.375 8.4585L21.75 12.0835M3.625 8.4585H6.52137C7.49278 8.45857 8.44985 8.69287 9.31143 9.14154C10.173 9.59022 10.9137 10.24 11.4707 11.0359L16.321 17.9645C16.878 18.7603 17.6187 19.4101 18.4802 19.8588C19.3418 20.3075 20.2989 20.5418 21.2703 20.5418H25.375" stroke="black" stroke-width="2" stroke-linecap="round" stroke-linejoin="round"/>
<path d="M21.75 24.167L25.375 20.542L21.75 16.917" stroke="black" stroke-width="2" stroke-linecap="round" stroke-linejoin="round"/>
</svg>
