<svg width="45" height="89" viewBox="0 0 45 89" fill="none" xmlns="http://www.w3.org/2000/svg">
<path d="M35.6365 48.8787V13.848C35.6365 10.3639 34.2525 7.02261 31.7889 4.55903C29.3254 2.09545 25.984 0.711426 22.5 0.711426C19.016 0.711426 15.6746 2.09545 13.2111 4.55903C10.7475 7.02261 9.36347 10.3639 9.36347 13.848V48.8787C5.68729 51.6359 2.97181 55.4798 1.60166 59.866C0.23152 64.2522 0.276179 68.9583 1.72931 73.3177C3.18245 77.6771 5.97039 81.4688 9.69822 84.1556C13.4261 86.8425 17.9048 88.2883 22.5 88.2883C27.0952 88.2883 31.574 86.8425 35.3018 84.1556C39.0296 81.4688 41.8176 77.6771 43.2707 73.3177C44.7238 68.9583 44.7685 64.2522 43.3983 59.866C42.0282 55.4798 39.3127 51.6359 35.6365 48.8787M22.5 9.46912C23.6613 9.46912 24.7751 9.93046 25.5963 10.7517C26.4175 11.5728 26.8789 12.6866 26.8789 13.848V26.9845H18.1212V13.848C18.1212 12.6866 18.5825 11.5728 19.4037 10.7517C20.2249 9.93046 21.3387 9.46912 22.5 9.46912V9.46912Z" fill="black"/>
</svg>
